<svg width="260" height="46" viewBox="0 0 260 46" fill="none" xmlns="http://www.w3.org/2000/svg">
<path d="M22.9997 0C35.7026 0 45.9997 10.2971 45.9997 23V39.1C45.9997 40.93 45.2728 42.685 43.9788 43.979C42.6848 45.273 40.9297 46 39.0997 46H24.1497V35.9099C24.1497 33.6076 24.29 31.2225 25.4975 29.2629C26.362 27.8586 27.5185 26.6566 28.8884 25.7385C30.2583 24.8204 31.8096 24.2077 33.4371 23.9418L33.8776 23.8705C34.0592 23.8085 34.2168 23.6912 34.3284 23.5351C34.44 23.379 34.5 23.1919 34.5 23C34.5 22.8081 34.44 22.621 34.3284 22.4649C34.2168 22.3088 34.0592 22.1915 33.8776 22.1294L33.4371 22.0581C31.0591 21.6697 28.8632 20.5441 27.1594 18.8403C25.4556 17.1365 24.3301 14.9406 23.9416 12.5626L23.8703 12.1222C23.8082 11.9406 23.6909 11.7829 23.5348 11.6713C23.3787 11.5597 23.1916 11.4997 22.9997 11.4997C22.8078 11.4997 22.6208 11.5597 22.4647 11.6713C22.3086 11.7829 22.1913 11.9406 22.1292 12.1222L22.0579 12.5626C21.7922 14.1902 21.1795 15.7415 20.2614 17.1114C19.3433 18.4814 18.1412 19.6378 16.7368 20.5022C14.7772 21.7097 12.3921 21.85 10.0898 21.85H0.0273438C0.628794 9.68185 10.6832 0 22.9997 0Z" fill="#5F6FFF"/>
<path d="M0 24.15H10.0901C12.3924 24.15 14.7775 24.2903 16.7371 25.4978C18.2689 26.4417 19.5583 27.7311 20.5022 29.2629C21.7097 31.2225 21.85 33.6076 21.85 35.9099V46H6.9C5.07001 46 3.31496 45.273 2.02096 43.979C0.726962 42.685 0 40.93 0 39.1L0 24.15ZM46 2.3C46 2.91 45.7577 3.49501 45.3263 3.92635C44.895 4.35768 44.31 4.6 43.7 4.6C43.09 4.6 42.505 4.35768 42.0737 3.92635C41.6423 3.49501 41.4 2.91 41.4 2.3C41.4 1.69 41.6423 1.10499 42.0737 0.673654C42.505 0.242321 43.09 0 43.7 0C44.31 0 44.895 0.242321 45.3263 0.673654C45.7577 1.10499 46 1.69 46 2.3Z" fill="#5F6FFF"/>
<path d="M60.61 37V32.886H66.696C68.2373 32.886 69.586 32.5687 70.742 31.934C71.898 31.2767 72.7933 30.3587 73.428 29.18C74.0853 28.0013 74.414 26.6073 74.414 24.998C74.414 23.434 74.0853 22.074 73.428 20.918C72.7707 19.7393 71.864 18.8327 70.708 18.198C69.552 17.5407 68.2147 17.212 66.696 17.212H60.508V13.098H66.764C68.532 13.098 70.164 13.3927 71.66 13.982C73.1787 14.5713 74.4933 15.41 75.604 16.498C76.7373 17.5633 77.61 18.8213 78.222 20.272C78.8567 21.7227 79.174 23.3093 79.174 25.032C79.174 26.7547 78.8567 28.3527 78.222 29.826C77.61 31.2767 76.7487 32.546 75.638 33.634C74.5273 34.6993 73.2127 35.5267 71.694 36.116C70.198 36.7053 68.5773 37 66.832 37H60.61ZM57.448 37V13.098H62.072V37H57.448ZM94.0344 37.374C92.2891 37.374 90.6571 37.0567 89.1384 36.422C87.6424 35.7873 86.3277 34.9147 85.1944 33.804C84.0837 32.6707 83.2111 31.356 82.5764 29.86C81.9417 28.3413 81.6244 26.7207 81.6244 24.998C81.6244 23.2753 81.9304 21.6773 82.5424 20.204C83.1771 18.708 84.0497 17.4047 85.1604 16.294C86.2937 15.1607 87.6084 14.288 89.1044 13.676C90.6004 13.0413 92.2211 12.724 93.9664 12.724C95.7344 12.724 97.3664 13.0413 98.8624 13.676C100.358 14.288 101.662 15.1607 102.772 16.294C103.906 17.4047 104.79 18.708 105.424 20.204C106.059 21.7 106.376 23.3093 106.376 25.032C106.376 26.7547 106.059 28.364 105.424 29.86C104.79 31.356 103.906 32.6707 102.772 33.804C101.662 34.9147 100.358 35.7873 98.8624 36.422C97.3891 37.0567 95.7797 37.374 94.0344 37.374ZM93.9664 33.056C95.5077 33.056 96.8451 32.716 97.9784 32.036C99.1117 31.356 99.9957 30.4153 100.63 29.214C101.288 28.0127 101.616 26.6073 101.616 24.998C101.616 23.8193 101.435 22.7427 101.072 21.768C100.71 20.7933 100.188 19.9547 99.5084 19.252C98.8284 18.5267 98.0237 17.9713 97.0944 17.586C96.1651 17.2007 95.1224 17.008 93.9664 17.008C92.4704 17.008 91.1444 17.348 89.9884 18.028C88.8551 18.6853 87.9597 19.6147 87.3024 20.816C86.6677 22.0173 86.3504 23.4113 86.3504 24.998C86.3504 26.1993 86.5317 27.2987 86.8944 28.296C87.2797 29.2933 87.8011 30.1433 88.4584 30.846C89.1384 31.5487 89.9431 32.0927 90.8724 32.478C91.8244 32.8633 92.8557 33.056 93.9664 33.056ZM121.425 37.34C119.679 37.34 118.059 37.034 116.563 36.422C115.067 35.7873 113.752 34.9147 112.619 33.804C111.508 32.6707 110.647 31.356 110.035 29.86C109.445 28.364 109.151 26.7547 109.151 25.032C109.151 23.3093 109.445 21.7 110.035 20.204C110.647 18.708 111.508 17.4047 112.619 16.294C113.752 15.1833 115.055 14.3107 116.529 13.676C118.025 13.0413 119.657 12.724 121.425 12.724C123.329 12.724 125.006 13.0413 126.457 13.676C127.907 14.288 129.188 15.138 130.299 16.226L127.171 19.354C126.513 18.6287 125.709 18.062 124.757 17.654C123.805 17.246 122.694 17.042 121.425 17.042C120.314 17.042 119.294 17.2347 118.365 17.62C117.458 17.9827 116.665 18.5267 115.985 19.252C115.305 19.9547 114.783 20.8047 114.421 21.802C114.058 22.7767 113.877 23.8533 113.877 25.032C113.877 26.2333 114.058 27.3213 114.421 28.296C114.783 29.2707 115.305 30.1207 115.985 30.846C116.665 31.5487 117.458 32.0927 118.365 32.478C119.294 32.8633 120.314 33.056 121.425 33.056C122.762 33.056 123.907 32.852 124.859 32.444C125.833 32.036 126.649 31.458 127.307 30.71L130.435 33.838C129.324 34.9487 128.032 35.81 126.559 36.422C125.085 37.034 123.374 37.34 121.425 37.34ZM139.134 37V13.608H143.792V37H139.134ZM131.518 17.212V13.098H151.408V17.212H131.518ZM164.359 37.374C162.613 37.374 160.981 37.0567 159.463 36.422C157.967 35.7873 156.652 34.9147 155.519 33.804C154.408 32.6707 153.535 31.356 152.901 29.86C152.266 28.3413 151.949 26.7207 151.949 24.998C151.949 23.2753 152.255 21.6773 152.867 20.204C153.501 18.708 154.374 17.4047 155.485 16.294C156.618 15.1607 157.933 14.288 159.429 13.676C160.925 13.0413 162.545 12.724 164.291 12.724C166.059 12.724 167.691 13.0413 169.187 13.676C170.683 14.288 171.986 15.1607 173.097 16.294C174.23 17.4047 175.114 18.708 175.749 20.204C176.383 21.7 176.701 23.3093 176.701 25.032C176.701 26.7547 176.383 28.364 175.749 29.86C175.114 31.356 174.23 32.6707 173.097 33.804C171.986 34.9147 170.683 35.7873 169.187 36.422C167.713 37.0567 166.104 37.374 164.359 37.374ZM164.291 33.056C165.832 33.056 167.169 32.716 168.303 32.036C169.436 31.356 170.32 30.4153 170.955 29.214C171.612 28.0127 171.941 26.6073 171.941 24.998C171.941 23.8193 171.759 22.7427 171.397 21.768C171.034 20.7933 170.513 19.9547 169.833 19.252C169.153 18.5267 168.348 17.9713 167.419 17.586C166.489 17.2007 165.447 17.008 164.291 17.008C162.795 17.008 161.469 17.348 160.313 18.028C159.179 18.6853 158.284 19.6147 157.627 20.816C156.992 22.0173 156.675 23.4113 156.675 24.998C156.675 26.1993 156.856 27.2987 157.219 28.296C157.604 29.2933 158.125 30.1433 158.783 30.846C159.463 31.5487 160.267 32.0927 161.197 32.478C162.149 32.8633 163.18 33.056 164.291 33.056ZM185.443 34.348L194.453 24.93C195.087 24.25 195.597 23.6493 195.983 23.128C196.391 22.584 196.685 22.074 196.867 21.598C197.048 21.0993 197.139 20.6007 197.139 20.102C197.139 19.1047 196.81 18.3227 196.153 17.756C195.518 17.1893 194.691 16.906 193.671 16.906C192.628 16.906 191.699 17.178 190.883 17.722C190.089 18.266 189.341 19.1273 188.639 20.306L185.477 17.62C186.429 16.0107 187.607 14.798 189.013 13.982C190.441 13.1433 192.073 12.724 193.909 12.724C195.473 12.724 196.833 13.03 197.989 13.642C199.167 14.254 200.074 15.104 200.709 16.192C201.343 17.28 201.661 18.5493 201.661 20C201.661 20.9747 201.536 21.8587 201.287 22.652C201.06 23.4453 200.663 24.2387 200.097 25.032C199.553 25.8027 198.793 26.6753 197.819 27.65L191.257 34.348H185.443ZM185.443 37V34.348L189.387 32.988H202.171V37H185.443ZM204.202 28.568L212.362 13.098H217.462L209.098 28.568H204.202ZM204.202 31.288V28.568L205.902 27.242H223.038V31.288H204.202ZM215.49 37V21.768H220.046V37H215.49ZM236.111 37L231.793 30.336L230.875 29.656L224.483 20.578H229.753L233.731 26.596L234.581 27.242L241.347 37H236.111ZM224.143 37L230.841 27.616L233.391 30.642L229.175 37H224.143ZM234.751 29.622L232.133 26.63L236.043 20.578H241.041L234.751 29.622ZM245.748 37L254.146 15.784H258.702L250.542 37H245.748ZM242.45 17.11V13.098H258.702V15.784L256.968 17.11H242.45Z" fill="#000B6D"/>
</svg>
